<svg width="250" height="250" viewBox="0 0 146 135" fill="none" xmlns="http://www.w3.org/2000/svg">
    <path d="M64.5 103.5C66 104.833 72.1 110.3 84.5 121.5L93.5 133L110 126H125L129.5 99V63.5L139 48.5L143.5 21L133.5 2H107.5L96 14L74 16L46.5 10.5L27.5 14L11.5 35L5.5 53L2 76L5.5 99L15.5 113H34.5L48.5 103.5H64.5Z" fill="#42B625" stroke="#EFE841" stroke-width="3"/>
    <rect x="61" y="49" width="16" height="16" rx="3" fill="white"/>
    <rect x="63" y="51" width="12" height="12" rx="3" fill="#FF0D0D"/>
    <rect x="31" y="41" width="16" height="16" rx="3" fill="white"/>
    <rect x="33" y="43" width="12" height="12" rx="3" fill="#0DF0FF"/>
    <rect x="103" y="99" width="16" height="16" rx="3" fill="white"/>
    <rect x="105" y="101" width="12" height="12" rx="3" fill="#0DF0FF"/>
    <rect x="115" y="11" width="16" height="16" rx="3" fill="white"/>
    <rect x="117" y="13" width="12" height="12" rx="3" fill="#0DF0FF"/>
</svg>


